# xmcd
#
# Track frame offsets:
#	150
#	9490
#	27997
#	46546
#	61087
#	78502
#	92567
#	109403
#	126726
#	145095
#	160449
#	175289
#	192478
#	208982
#
# Disc length: 3006 seconds
#
# Revision: 1
# Processed by: cddbd v1.5.2PL0 Copyright (c) Steve Scherf et al.
# Submitted via: audiograbber 1.83.01
#
DISCID=c50bbc0e
DTITLE=ALINE CALIXTO - FLOR MPRENA
DYEAR=2011
DGENRE=SAMBA
TTITLE0=GEMADA CARIOCA
TTITLE1=ME DEIXA QUE EU QUERO SAMBAR
TTITLE2=FLOR MORENA
TTITLE3=CONVERSA VIADA
TTITLE4=CACUÁ
TTITLE5=JE SUIS LA MARIA
TTITLE6=CORAÇÃO VULGAR
TTITLE7=ECUMENISMO
TTITLE8=DE PARTIR CHEGAR
TTITLE9=TEU OUVIDO
TTITLE10=BLÁ BLÁ BLÁ
TTITLE11=CABILA
TTITLE12=CAFUSO
TTITLE13=RESA FORTE
EXTD=
EXTT0=
EXTT1=
EXTT2=
EXTT3=
EXTT4=
EXTT5=
EXTT6=
EXTT7=
EXTT8=
EXTT9=
EXTT10=
EXTT11=
EXTT12=
EXTT13=
PLAYORDER=
